<svg width="60" height="121" viewBox="0 0 60 121" fill="none" xmlns="http://www.w3.org/2000/svg">
<path d="M18.3 47.6H5.3V62H18.3C19.6 62 20.7 63 20.7 64.4V115.8H35.1V64.4C35.1 63.1 36.2 62 37.5 62H54.3V47.6H37.5C36.2 47.6 35.1 46.5 35.1 45.2C35.1 39 35.1 34.5 35.5 31C35.9 27.1 36.9 24.5 38.8 22.8C38.9 22.8 38.9 22.7 39 22.7C40.7 21.2 42.9 20.5 45.9 20.1C48.2 19.8 50.9 19.8 54.3 19.8V5.3C46 5.3 39.6 5.4 34.8 5.9C30 6.5 26.8 7.6 24.9 9.8C22.9 12 21.9 15.6 21.3 21C20.7 26.8 20.7 34.7 20.7 45.2C20.7 46.5 19.6 47.6 18.3 47.6ZM2.9 42.7H15.9C15.9 33.3 16 26.1 16.5 20.5C17.2 14 18.5 9.6 21.3 6.6C24.1 3.5 28.2 1.9 34.2 1.2C39.7 0.5 47 0.5 56.7 0.5C58 0.5 59.1 1.6 59.1 2.9V22.1C59.1 23.4 58 24.5 56.7 24.5C52.3 24.5 48.9 24.5 46.4 24.8C44.4 25 43 25.4 42.1 26.2L42 26.3C41 27.2 40.5 28.9 40.2 31.6C39.9 34.3 39.9 38 39.9 42.8H56.7C58 42.8 59.1 43.9 59.1 45.2V64.4C59.1 65.7 58 66.8 56.7 66.8H39.9V118.2C39.9 119.5 38.8 120.6 37.5 120.6H18.3C17 120.6 15.9 119.6 15.9 118.2V66.8H2.9C1.6 66.8 0.5 65.7 0.5 64.4V45.1C0.5 43.8 1.6 42.7 2.9 42.7Z" fill="white"/>
</svg>
