<?xml version="1.0" encoding="utf-8"?>
<!-- Generator: Adobe Illustrator 24.0.3, SVG Export Plug-In . SVG Version: 6.00 Build 0)  -->
<!DOCTYPE svg PUBLIC "-//W3C//DTD SVG 1.1//EN" "http://www.w3.org/Graphics/SVG/1.1/DTD/svg11.dtd" [
	<!ENTITY ns_extend "http://ns.adobe.com/Extensibility/1.0/">
	<!ENTITY ns_ai "http://ns.adobe.com/AdobeIllustrator/10.0/">
	<!ENTITY ns_graphs "http://ns.adobe.com/Graphs/1.0/">
	<!ENTITY ns_vars "http://ns.adobe.com/Variables/1.0/">
	<!ENTITY ns_imrep "http://ns.adobe.com/ImageReplacement/1.0/">
	<!ENTITY ns_sfw "http://ns.adobe.com/SaveForWeb/1.0/">
	<!ENTITY ns_custom "http://ns.adobe.com/GenericCustomNamespace/1.0/">
	<!ENTITY ns_adobe_xpath "http://ns.adobe.com/XPath/1.0/">
]>
<svg version="1.1" id="Layer_1" xmlns:x="&ns_extend;" xmlns:i="&ns_ai;" xmlns:graph="&ns_graphs;"
	 xmlns="http://www.w3.org/2000/svg" xmlns:xlink="http://www.w3.org/1999/xlink" x="0px" y="0px" viewBox="0 0 58.6 120"
	 style="enable-background:new 0 0 58.6 120;" xml:space="preserve">
<style type="text/css">
	.st0{fill:#011627;}
</style>
<metadata  id="CorelCorpID_0Corel-Layer">
	<sfw  xmlns="&ns_sfw;">
		<slices></slices>
		<sliceSourceBounds  bottomLeftOrigin="true" height="120" width="58.6" x="100.3" y="69.6"></sliceSourceBounds>
	</sfw>
</metadata>
<g id="Layer_x0020_1">
	<g id="_2744503357600">
		<path class="st0" d="M17.8,47.1h-13v14.4l13,0c1.3,0,2.4,1,2.4,2.4l0,51.4h14.4V63.9c0-1.3,1.1-2.4,2.4-2.4h16.8V47.1H37
			c-1.3,0-2.4-1.1-2.4-2.4c0-6.2,0-10.7,0.4-14.2c0.4-3.9,1.4-6.5,3.3-8.2c0.1,0,0.1-0.1,0.2-0.1c1.7-1.5,3.9-2.2,6.9-2.6
			c2.3-0.3,5-0.3,8.4-0.3V4.8c-8.3,0-14.7,0.1-19.5,0.6c-4.8,0.6-8,1.7-9.9,3.9c-2,2.2-3,5.8-3.6,11.2c-0.6,5.8-0.6,13.7-0.6,24.2
			C20.2,46,19.1,47.1,17.8,47.1z M2.4,42.2h13c0-9.4,0.1-16.6,0.6-22.2c0.7-6.5,2-10.9,4.8-13.9c2.8-3.1,6.9-4.7,12.9-5.4
			C39.2,0,46.5,0,56.2,0c1.3,0,2.4,1.1,2.4,2.4v19.2c0,1.3-1.1,2.4-2.4,2.4c-4.4,0-7.8,0-10.3,0.3c-2,0.2-3.4,0.6-4.3,1.4l-0.1,0.1
			c-1,0.9-1.5,2.6-1.8,5.3c-0.3,2.7-0.3,6.4-0.3,11.2h16.8c1.3,0,2.4,1.1,2.4,2.4v19.2c0,1.3-1.1,2.4-2.4,2.4H39.4v51.4h0
			c0,1.3-1.1,2.4-2.4,2.4l-19.2,0c-1.3,0-2.4-1-2.4-2.4l0-51.4h-13c-1.3,0-2.4-1.1-2.4-2.4V44.6C0,43.3,1.1,42.2,2.4,42.2z"/>
	</g>
</g>
</svg>
