<?xml version="1.0" encoding="utf-8"?>
<!-- Generator: Adobe Illustrator 24.0.3, SVG Export Plug-In . SVG Version: 6.00 Build 0)  -->
<!DOCTYPE svg PUBLIC "-//W3C//DTD SVG 1.1//EN" "http://www.w3.org/Graphics/SVG/1.1/DTD/svg11.dtd" [
	<!ENTITY ns_extend "http://ns.adobe.com/Extensibility/1.0/">
	<!ENTITY ns_ai "http://ns.adobe.com/AdobeIllustrator/10.0/">
	<!ENTITY ns_graphs "http://ns.adobe.com/Graphs/1.0/">
	<!ENTITY ns_vars "http://ns.adobe.com/Variables/1.0/">
	<!ENTITY ns_imrep "http://ns.adobe.com/ImageReplacement/1.0/">
	<!ENTITY ns_sfw "http://ns.adobe.com/SaveForWeb/1.0/">
	<!ENTITY ns_custom "http://ns.adobe.com/GenericCustomNamespace/1.0/">
	<!ENTITY ns_adobe_xpath "http://ns.adobe.com/XPath/1.0/">
]>
<svg version="1.1" id="Layer_1" xmlns:x="&ns_extend;" xmlns:i="&ns_ai;" xmlns:graph="&ns_graphs;"
	 xmlns="http://www.w3.org/2000/svg" xmlns:xlink="http://www.w3.org/1999/xlink" x="0px" y="0px" viewBox="0 0 120 120"
	 style="enable-background:new 0 0 120 120;" xml:space="preserve">
<style type="text/css">
	.st0{fill:#011627;}
</style>
<metadata  id="CorelCorpID_0Corel-Layer">
	<sfw  xmlns="&ns_sfw;">
		<slices></slices>
		<sliceSourceBounds  bottomLeftOrigin="true" height="120" width="120" x="69.6" y="69.6"></sliceSourceBounds>
	</sfw>
</metadata>
<g id="Layer_x0020_1">
	<g id="_2744492862240">
		<path class="st0" d="M25.2,0h69.6c6.9,0,13.2,2.8,17.8,7.4c4.6,4.6,7.4,10.9,7.4,17.8v69.6c0,6.9-2.8,13.2-7.4,17.8
			c-4.6,4.6-10.9,7.4-17.8,7.4H25.2c-6.9,0-13.2-2.8-17.8-7.4C2.8,108,0,101.7,0,94.8V25.2C0,18.3,2.8,12,7.4,7.4
			C12,2.8,18.3,0,25.2,0z M96.7,19.7c1.4,0,2.5,1.1,2.5,2.5c0,1.4-1.1,2.5-2.5,2.5c-1.4,0-2.5-1.1-2.5-2.5
			C94.2,20.8,95.3,19.7,96.7,19.7z M60,26.5c18.5,0,33.5,15,33.5,33.5S78.5,93.5,60,93.5S26.5,78.5,26.5,60S41.5,26.5,60,26.5z
			 M88.7,60c0-15.8-12.9-28.7-28.7-28.7S31.3,44.2,31.3,60S44.2,88.7,60,88.7S88.7,75.9,88.7,60z M94.8,4.8H25.2
			c-5.6,0-10.7,2.3-14.4,6c-3.7,3.7-6,8.8-6,14.4v69.6c0,5.6,2.3,10.7,6,14.4c3.7,3.7,8.8,6,14.4,6h69.6c5.6,0,10.7-2.3,14.4-6
			c3.7-3.7,6-8.8,6-14.4V25.2c0-5.6-2.3-10.7-6-14.4C105.5,7.1,100.4,4.8,94.8,4.8z"/>
	</g>
</g>
</svg>
