<svg width="121" height="121" viewBox="0 0 121 121" fill="none" xmlns="http://www.w3.org/2000/svg">
<path d="M25.7 0.5H95.3C102.2 0.5 108.5 3.3 113.1 7.9C117.7 12.5 120.5 18.8 120.5 25.7V95.3C120.5 102.2 117.7 108.5 113.1 113.1C108.5 117.7 102.2 120.5 95.3 120.5H25.7C18.8 120.5 12.5 117.7 7.9 113.1C3.3 108.5 0.5 102.2 0.5 95.3V25.7C0.5 18.8 3.3 12.5 7.9 7.9C12.5 3.3 18.8 0.5 25.7 0.5ZM97.2 20.2C98.6 20.2 99.7 21.3 99.7 22.7C99.7 24.1 98.6 25.2 97.2 25.2C95.8 25.2 94.7 24.1 94.7 22.7C94.7 21.3 95.8 20.2 97.2 20.2ZM60.5 27C79 27 94 42 94 60.5C94 79 79 94 60.5 94C42 94 27 79 27 60.5C27 42 42 27 60.5 27ZM89.2 60.5C89.2 44.7 76.3 31.8 60.5 31.8C44.7 31.8 31.8 44.7 31.8 60.5C31.8 76.3 44.7 89.2 60.5 89.2C76.3 89.2 89.2 76.4 89.2 60.5ZM95.3 5.3H25.7C20.1 5.3 15 7.6 11.3 11.3C7.6 15 5.3 20.1 5.3 25.7V95.3C5.3 100.9 7.6 106 11.3 109.7C15 113.4 20.1 115.7 25.7 115.7H95.3C100.9 115.7 106 113.4 109.7 109.7C113.4 106 115.7 100.9 115.7 95.3V25.7C115.7 20.1 113.4 15 109.7 11.3C106 7.6 100.9 5.3 95.3 5.3Z" fill="white"/>
</svg>
