<?xml version="1.0" encoding="UTF-8" standalone="no"?>
<!-- Created with Inkscape (http://www.inkscape.org/) -->

<svg
   width="114.84111mm"
   height="131.78429mm"
   viewBox="0 0 114.84111 131.78428"
   version="1.1"
   id="svg1"
   xml:space="preserve"
   xmlns="http://www.w3.org/2000/svg"
   xmlns:svg="http://www.w3.org/2000/svg"><defs
     id="defs1" /><g
     id="layer1"
     transform="translate(-47.618526,-82.531672)"><path
       d="m 146.37029,112.09022 c -0.8572,-0.44304 -1.69168,-0.92872 -2.50031,-1.45521 -2.35147,-1.55455 -4.50743,-3.38627 -6.42144,-5.45571 -4.78896,-5.479521 -6.57754,-11.038417 -7.16886,-14.599709 -0.59133,-3.561292 0.0825,-5.87464 -0.32939,-5.6515 H 108.138 v 84.343879 c 0,1.13241 0,2.2516 -0.0476,3.35756 0,0.13758 -0.0132,0.26458 -0.0212,0.41275 0,0.0608 0,0.12435 -0.0132,0.18785 v 0.0476 c -0.46689,6.14532 -3.96005,11.65582 -9.318626,14.70025 -2.750228,1.56463 -5.860796,2.38536 -9.024938,2.38125 -10.162646,0 -18.399125,-8.28675 -18.399125,-18.52084 0,-10.23408 8.236479,-18.52083 18.399125,-18.52083 1.923741,-0.002 3.83564,0.30094 5.664729,0.89694 l 0.02646,-22.20913 c -11.225848,-1.45007 -22.546482,1.8617 -31.220834,9.13342 -3.759556,3.26655 -6.92023,7.16411 -9.339791,11.51731 -0.92075,1.5875 -4.39473,7.96661 -4.815417,18.31975 -0.264583,5.8764 1.500187,11.96446 2.341562,14.48065 v 0.0529 c 0.529167,1.48166 2.579688,6.53785 5.921375,10.80029 2.694615,3.41912 9.501191,8.91381 9.501191,8.91381 10.559521,7.1755 22.267333,6.70454 22.267333,6.70454 2.026709,-0.082 8.815917,0 16.525876,-3.65389 8.55133,-4.05077 13.41967,-10.08592 13.41967,-10.08592 3.11014,-3.60606 5.58321,-7.71562 7.31308,-12.15231 1.97379,-5.18848 2.6326,-11.41148 2.6326,-13.89857 v -44.74631 c 0.26459,0.15875 3.78884,2.48973 3.78884,2.48973 0,0 5.07735,3.25437 12.99897,5.37369 5.68325,1.50812 13.3403,1.82562 13.3403,1.82562 v -21.6535 c -2.68288,0.29104 -8.13065,-0.55562 -13.70807,-3.33639 z"
       id="path1"
       style="fill:none;stroke:#000000;stroke-width:4.7625;stroke-dasharray:none;stroke-opacity:1" /></g></svg>
