<svg width="435" height="499" viewBox="0 0 435 499" fill="none" xmlns="http://www.w3.org/2000/svg">
<path d="M373.735 112.217C370.495 110.543 367.341 108.707 364.285 106.717C355.398 100.842 347.249 93.9189 340.015 86.0974C321.915 65.3874 315.155 44.3774 312.92 30.9174C310.685 17.4574 313.232 8.71401 311.675 9.55738H229.235V328.337C229.235 332.617 229.235 336.847 229.055 341.027C229.055 341.547 229.005 342.027 228.975 342.587C228.975 342.817 228.975 343.057 228.925 343.297V343.477C227.16 366.704 213.958 387.531 193.705 399.037C183.311 404.951 171.554 408.053 159.595 408.037C121.185 408.037 90.0551 376.717 90.0551 338.037C90.0551 299.357 121.185 268.037 159.595 268.037C166.866 268.03 174.092 269.175 181.005 271.427L181.105 187.487C138.677 182.007 95.89 194.524 63.1051 222.007C48.8957 234.353 36.9499 249.084 27.8051 265.537C24.3251 271.537 11.1951 295.647 9.60509 334.777C8.60509 356.987 15.2751 379.997 18.4551 389.507V389.707C20.4551 395.307 28.2051 414.417 40.8351 430.527C51.0195 443.45 76.7451 464.217 76.7451 464.217C116.655 491.337 160.905 489.557 160.905 489.557C168.565 489.247 194.225 489.557 223.365 475.747C255.685 460.437 274.085 437.627 274.085 437.627C285.84 423.998 295.187 408.466 301.725 391.697C309.185 372.087 311.675 348.567 311.675 339.167V170.047C312.675 170.647 325.995 179.457 325.995 179.457C325.995 179.457 345.185 191.757 375.125 199.767C396.605 205.467 425.545 206.667 425.545 206.667V124.827C415.405 125.927 394.815 122.727 373.735 112.217Z" stroke="white" stroke-width="18"/>
</svg>
