<svg xmlns="http://www.w3.org/2000/svg" width="256" height="256" viewBox="0 0 100 100"><rect width="100" height="100" rx="50" fill="#ffffff"></rect><path fill="#000000" d="M70.61 22.23L67.28 28.89Q63.95 27.18 59.99 25.92Q56.03 24.66 52.25 24.66L52.25 24.66Q47.03 24.66 43.92 27.09Q40.82 29.52 40.82 33.57L40.82 33.57Q40.82 36.63 42.80 38.75Q44.78 40.86 48.02 42.39Q51.26 43.92 54.77 45.27L54.77 45.27Q57.83 46.44 60.80 47.88Q63.77 49.32 66.16 51.48Q68.54 53.64 69.94 56.79Q71.33 59.94 71.33 64.62L71.33 64.62Q71.33 69.75 68.77 73.98Q66.20 78.21 61.43 80.64Q56.66 83.07 50.09 83.07L50.09 83.07Q45.77 83.07 41.86 82.08Q37.94 81.09 34.61 79.52Q31.28 77.94 28.67 76.23L28.67 76.23L32.54 69.39Q34.70 70.92 37.49 72.32Q40.28 73.71 43.34 74.57Q46.40 75.42 49.28 75.42L49.28 75.42Q52.34 75.42 55.36 74.30Q58.37 73.17 60.35 70.83Q62.33 68.49 62.33 64.62L62.33 64.62Q62.33 61.29 60.58 59.09Q58.82 56.88 55.94 55.31Q53.06 53.73 49.82 52.47L49.82 52.47Q46.76 51.30 43.61 49.91Q40.46 48.51 37.76 46.49Q35.06 44.46 33.44 41.49Q31.82 38.52 31.82 34.29L31.82 34.29Q31.82 29.16 34.30 25.34Q36.77 21.51 41.09 19.31Q45.41 17.10 50.99 16.92L50.99 16.92Q57.29 16.92 62.11 18.45Q66.92 19.98 70.61 22.23L70.61 22.23Z"></path></svg>