<svg width="385" height="225" viewBox="0 0 385 225" fill="none" xmlns="http://www.w3.org/2000/svg">
<path d="M368.5 224.5C365.822 224.488 363.191 223.8 360.85 222.5L8.84996 30.5C5.45954 28.3057 3.02436 24.9104 2.03301 20.9954C1.04166 17.0804 1.5675 12.9353 3.50501 9.39181C5.44253 5.84835 8.64837 3.16867 12.4793 1.89042C16.3103 0.612171 20.4829 0.829928 24.16 2.5L376.16 194.5C379.257 196.214 381.699 198.906 383.103 202.156C384.506 205.405 384.793 209.029 383.917 212.459C383.041 215.888 381.053 218.931 378.263 221.11C375.473 223.289 372.04 224.481 368.5 224.5Z" fill="white"/>
<path d="M16.5 224.5C12.9585 224.485 9.52187 223.296 6.72875 221.119C3.93563 218.942 1.94384 215.899 1.06553 212.468C0.187224 209.037 0.472034 205.412 1.87533 202.16C3.27862 198.909 5.72109 196.214 8.81996 194.5L360.82 2.5C362.667 1.45493 364.703 0.787733 366.811 0.537254C368.918 0.286776 371.054 0.458021 373.095 1.04102C375.135 1.62402 377.039 2.60712 378.696 3.93308C380.353 5.25905 381.73 6.90139 382.746 8.76448C383.762 10.6276 384.397 12.6742 384.615 14.7852C384.832 16.8962 384.628 19.0293 384.013 21.0605C383.398 23.0917 382.386 24.9803 381.034 26.6163C379.682 28.2523 378.019 29.6031 376.14 30.59L24.14 222.59C21.7944 223.859 19.1667 224.516 16.5 224.5Z" fill="white"/>
</svg>
