<svg width="385" height="225" viewBox="0 0 385 225" fill="none" xmlns="http://www.w3.org/2000/svg">
<path d="M368.5 224.5H16.5C12.2565 224.5 8.18687 222.814 5.18629 219.814C2.18571 216.813 0.5 212.743 0.5 208.5C0.5 204.257 2.18571 200.187 5.18629 197.186C8.18687 194.186 12.2565 192.5 16.5 192.5H368.5C372.743 192.5 376.813 194.186 379.814 197.186C382.814 200.187 384.5 204.257 384.5 208.5C384.5 212.743 382.814 216.813 379.814 219.814C376.813 222.814 372.743 224.5 368.5 224.5ZM368.5 128.5H16.5C12.2565 128.5 8.18687 126.814 5.18629 123.814C2.18571 120.813 0.5 116.743 0.5 112.5C0.5 108.257 2.18571 104.187 5.18629 101.186C8.18687 98.1857 12.2565 96.5 16.5 96.5H368.5C372.743 96.5 376.813 98.1857 379.814 101.186C382.814 104.187 384.5 108.257 384.5 112.5C384.5 116.743 382.814 120.813 379.814 123.814C376.813 126.814 372.743 128.5 368.5 128.5ZM368.5 32.5H16.5C12.2565 32.5 8.18687 30.8143 5.18629 27.8137C2.18571 24.8131 0.5 20.7435 0.5 16.5C0.5 12.2565 2.18571 8.18687 5.18629 5.18629C8.18687 2.18571 12.2565 0.5 16.5 0.5L368.5 0.5C372.743 0.5 376.813 2.18571 379.814 5.18629C382.814 8.18687 384.5 12.2565 384.5 16.5C384.5 20.7435 382.814 24.8131 379.814 27.8137C376.813 30.8143 372.743 32.5 368.5 32.5Z" fill="white"/>
</svg>
